<svg width="28" height="28" viewBox="0 0 28 28" fill="none" xmlns="http://www.w3.org/2000/svg">
<path fill-rule="evenodd" clip-rule="evenodd" d="M14 0C21.728 0 28 6.286 28 14L27.9946 14.3917C27.787 21.9388 21.597 28 14 28C6.286 28 0 21.728 0 14C0 6.286 6.286 0 14 0ZM8.40004 16.7719C8.82004 17.1779 9.47804 17.1779 9.88404 16.7579L14 12.6279L18.116 16.7579C18.522 17.1779 19.194 17.1779 19.6 16.7719C20.02 16.3519 20.02 15.6939 19.6 15.2879L14.742 10.4019C14.546 10.2059 14.28 10.0939 14 10.0939C13.72 10.0939 13.454 10.2059 13.258 10.4019L8.40004 15.2879C8.19004 15.4839 8.09204 15.7499 8.09204 16.0159C8.09204 16.2959 8.19004 16.5619 8.40004 16.7719Z" fill="#0DBA8A"/>
</svg>
