<svg width="32" height="32" viewBox="0 0 32 32" fill="none" xmlns="http://www.w3.org/2000/svg">
<path d="M20.3999 20C20.3999 20.4244 20.2313 20.8313 19.9312 21.1314C19.6312 21.4315 19.2242 21.6 18.7999 21.6C18.3755 21.6 17.9685 21.4315 17.6685 21.1314C17.3684 20.8313 17.1999 20.4244 17.1999 20C17.1999 19.5757 17.3684 19.1687 17.6685 18.8687C17.9685 18.5686 18.3755 18.4 18.7999 18.4C19.2242 18.4 19.6312 18.5686 19.9312 18.8687C20.2313 19.1687 20.3999 19.5757 20.3999 20ZM14.7999 20C14.7999 20.4244 14.6313 20.8313 14.3312 21.1314C14.0312 21.4315 13.6242 21.6 13.1999 21.6C12.7755 21.6 12.3685 21.4315 12.0685 21.1314C11.7684 20.8313 11.5999 20.4244 11.5999 20C11.5999 19.5757 11.7684 19.1687 12.0685 18.8687C12.3685 18.5686 12.7755 18.4 13.1999 18.4C13.6242 18.4 14.0312 18.5686 14.3312 18.8687C14.6313 19.1687 14.7999 19.5757 14.7999 20Z" fill="#0DBA8A"/>
<path fill-rule="evenodd" clip-rule="evenodd" d="M15.9999 12.8C17.4851 12.8 18.9095 12.21 19.9597 11.1598C21.0099 10.1096 21.5999 8.68519 21.5999 7.19998C21.5999 5.71476 21.0099 4.29038 19.9597 3.24018C18.9095 2.18997 17.4851 1.59998 15.9999 1.59998C14.5147 1.59998 13.0903 2.18997 12.0401 3.24018C10.9899 4.29038 10.3999 5.71476 10.3999 7.19998C10.3999 8.68519 10.9899 10.1096 12.0401 11.1598C13.0903 12.21 14.5147 12.8 15.9999 12.8ZM15.9999 4.79998C16.6364 4.79998 17.2469 5.05283 17.697 5.50292C18.147 5.95301 18.3999 6.56346 18.3999 7.19998C18.3999 7.8365 18.147 8.44694 17.697 8.89703C17.2469 9.34712 16.6364 9.59998 15.9999 9.59998C15.3634 9.59998 14.7529 9.34712 14.3028 8.89703C13.8528 8.44694 13.5999 7.8365 13.5999 7.19998C13.5999 6.56346 13.8528 5.95301 14.3028 5.50292C14.7529 5.05283 15.3634 4.79998 15.9999 4.79998Z" fill="#0DBA8A"/>
<path d="M15.9998 22.4C16.8485 22.4 17.6624 22.7372 18.2625 23.3373C18.8627 23.9374 19.1998 24.7513 19.1998 25.6V28C19.1998 28.8487 18.8627 29.6626 18.2625 30.2628C17.6624 30.8629 16.8485 31.2 15.9998 31.2C15.1511 31.2 14.3372 30.8629 13.7371 30.2628C13.1369 29.6626 12.7998 28.8487 12.7998 28V25.6C12.7998 24.7513 13.1369 23.9374 13.7371 23.3373C14.3372 22.7372 15.1511 22.4 15.9998 22.4Z" fill="#0DBA8A"/>
<path fill-rule="evenodd" clip-rule="evenodd" d="M24 17.6C24 15.4782 23.1571 13.4434 21.6569 11.9431C20.1566 10.4428 18.1217 9.59998 16 9.59998C13.8783 9.59998 11.8434 10.4428 10.3431 11.9431C8.84285 13.4434 8 15.4782 8 17.6V21.6C8 22.6608 8.42143 23.6783 9.17157 24.4284C9.92172 25.1785 10.9391 25.6 12 25.6H20C21.0609 25.6 22.0783 25.1785 22.8284 24.4284C23.5786 23.6783 24 22.6608 24 21.6V17.6ZM11.2 17.6C11.2 16.3269 11.7057 15.106 12.6059 14.2059C13.5061 13.3057 14.727 12.8 16 12.8C17.273 12.8 18.4939 13.3057 19.3941 14.2059C20.2943 15.106 20.8 16.3269 20.8 17.6V21.6C20.8 21.8121 20.7157 22.0156 20.5657 22.1657C20.4157 22.3157 20.2122 22.4 20 22.4H12C11.7878 22.4 11.5843 22.3157 11.4343 22.1657C11.2843 22.0156 11.2 21.8121 11.2 21.6V17.6Z" fill="#0DBA8A"/>
<path d="M24.7999 7.2C24.3756 7.2 23.9686 7.03143 23.6685 6.73137C23.3685 6.43131 23.1999 6.02435 23.1999 5.6C23.1999 5.17565 23.3685 4.76869 23.6685 4.46863C23.9686 4.16857 24.3756 4 24.7999 4H27.9999C28.4242 4 28.8312 4.16857 29.1313 4.46863C29.4313 4.76869 29.5999 5.17565 29.5999 5.6C29.5999 6.02435 29.4313 6.43131 29.1313 6.73137C28.8312 7.03143 28.4242 7.2 27.9999 7.2H24.7999ZM3.9999 7.2C3.57556 7.2 3.16859 7.03143 2.86853 6.73137C2.56847 6.43131 2.3999 6.02435 2.3999 5.6C2.3999 5.17565 2.56847 4.76869 2.86853 4.46863C3.16859 4.16857 3.57556 4 3.9999 4H7.1999C7.62425 4 8.03121 4.16857 8.33127 4.46863C8.63133 4.76869 8.7999 5.17565 8.7999 5.6C8.7999 6.02435 8.63133 6.43131 8.33127 6.73137C8.03121 7.03143 7.62425 7.2 7.1999 7.2H3.9999Z" fill="#0DBA8A"/>
<path d="M5.45581 6.47363L6.21741 4.14563L13.4558 5.52643L12.6926 7.85603L5.45581 6.47363ZM18.5438 5.52643L19.307 7.85603L26.5438 6.47363L25.7822 4.14563L18.5438 5.52643Z" fill="#0DBA8A"/>
</svg>
