<svg width="60" height="60" viewBox="0 0 60 60" fill="none" xmlns="http://www.w3.org/2000/svg">
<rect width="60" height="60" rx="12" fill="#DCF6EF"/>
<path d="M34.4 34C34.4 34.4244 34.2314 34.8313 33.9314 35.1314C33.6313 35.4314 33.2244 35.6 32.8 35.6C32.3757 35.6 31.9687 35.4314 31.6686 35.1314C31.3686 34.8313 31.2 34.4244 31.2 34C31.2 33.5757 31.3686 33.1687 31.6686 32.8686C31.9687 32.5686 32.3757 32.4 32.8 32.4C33.2244 32.4 33.6313 32.5686 33.9314 32.8686C34.2314 33.1687 34.4 33.5757 34.4 34ZM28.8 34C28.8 34.4244 28.6314 34.8313 28.3314 35.1314C28.0313 35.4314 27.6244 35.6 27.2 35.6C26.7757 35.6 26.3687 35.4314 26.0686 35.1314C25.7686 34.8313 25.6 34.4244 25.6 34C25.6 33.5757 25.7686 33.1687 26.0686 32.8686C26.3687 32.5686 26.7757 32.4 27.2 32.4C27.6244 32.4 28.0313 32.5686 28.3314 32.8686C28.6314 33.1687 28.8 33.5757 28.8 34Z" fill="#0DBA8A"/>
<path fill-rule="evenodd" clip-rule="evenodd" d="M30 26.8C31.4852 26.8 32.9096 26.21 33.9598 25.1598C35.01 24.1096 35.6 22.6852 35.6 21.2C35.6 19.7148 35.01 18.2904 33.9598 17.2402C32.9096 16.19 31.4852 15.6 30 15.6C28.5148 15.6 27.0904 16.19 26.0402 17.2402C24.99 18.2904 24.4 19.7148 24.4 21.2C24.4 22.6852 24.99 24.1096 26.0402 25.1598C27.0904 26.21 28.5148 26.8 30 26.8ZM30 18.8C30.6365 18.8 31.247 19.0529 31.6971 19.5029C32.1471 19.953 32.4 20.5635 32.4 21.2C32.4 21.8365 32.1471 22.447 31.6971 22.8971C31.247 23.3472 30.6365 23.6 30 23.6C29.3635 23.6 28.753 23.3472 28.3029 22.8971C27.8529 22.447 27.6 21.8365 27.6 21.2C27.6 20.5635 27.8529 19.953 28.3029 19.5029C28.753 19.0529 29.3635 18.8 30 18.8Z" fill="#0DBA8A"/>
<path d="M30 36.4C30.8487 36.4 31.6626 36.7372 32.2627 37.3373C32.8628 37.9374 33.2 38.7513 33.2 39.6V42C33.2 42.8487 32.8628 43.6626 32.2627 44.2628C31.6626 44.8629 30.8487 45.2 30 45.2C29.1513 45.2 28.3374 44.8629 27.7372 44.2628C27.1371 43.6626 26.8 42.8487 26.8 42V39.6C26.8 38.7513 27.1371 37.9374 27.7372 37.3373C28.3374 36.7372 29.1513 36.4 30 36.4Z" fill="#0DBA8A"/>
<path fill-rule="evenodd" clip-rule="evenodd" d="M38 31.6C38 29.4783 37.1571 27.4434 35.6569 25.9432C34.1566 24.4429 32.1217 23.6 30 23.6C27.8783 23.6 25.8434 24.4429 24.3431 25.9432C22.8429 27.4434 22 29.4783 22 31.6V35.6C22 36.6609 22.4214 37.6783 23.1716 38.4284C23.9217 39.1786 24.9391 39.6 26 39.6H34C35.0609 39.6 36.0783 39.1786 36.8284 38.4284C37.5786 37.6783 38 36.6609 38 35.6V31.6ZM25.2 31.6C25.2 30.327 25.7057 29.1061 26.6059 28.2059C27.5061 27.3057 28.727 26.8 30 26.8C31.273 26.8 32.4939 27.3057 33.3941 28.2059C34.2943 29.1061 34.8 30.327 34.8 31.6V35.6C34.8 35.8122 34.7157 36.0157 34.5657 36.1657C34.4157 36.3157 34.2122 36.4 34 36.4H26C25.7878 36.4 25.5843 36.3157 25.4343 36.1657C25.2843 36.0157 25.2 35.8122 25.2 35.6V31.6Z" fill="#0DBA8A"/>
<path d="M38.8 21.2C38.3756 21.2 37.9687 21.0314 37.6686 20.7314C37.3686 20.4313 37.2 20.0243 37.2 19.6C37.2 19.1757 37.3686 18.7687 37.6686 18.4686C37.9687 18.1686 38.3756 18 38.8 18H42C42.4243 18 42.8313 18.1686 43.1314 18.4686C43.4314 18.7687 43.6 19.1757 43.6 19.6C43.6 20.0243 43.4314 20.4313 43.1314 20.7314C42.8313 21.0314 42.4243 21.2 42 21.2H38.8ZM18 21.2C17.5756 21.2 17.1687 21.0314 16.8686 20.7314C16.5686 20.4313 16.4 20.0243 16.4 19.6C16.4 19.1757 16.5686 18.7687 16.8686 18.4686C17.1687 18.1686 17.5756 18 18 18H21.2C21.6243 18 22.0313 18.1686 22.3314 18.4686C22.6314 18.7687 22.8 19.1757 22.8 19.6C22.8 20.0243 22.6314 20.4313 22.3314 20.7314C22.0313 21.0314 21.6243 21.2 21.2 21.2H18Z" fill="#0DBA8A"/>
<path d="M19.456 20.4736L20.2176 18.1456L27.456 19.5264L26.6928 21.856L19.456 20.4736ZM32.544 19.5264L33.3072 21.856L40.544 20.4736L39.7824 18.1456L32.544 19.5264Z" fill="#0DBA8A"/>
</svg>
