<svg width="60" height="60" viewBox="0 0 60 60" fill="none" xmlns="http://www.w3.org/2000/svg">
<rect width="60" height="60" rx="12" fill="#DCF6EF"/>
<path d="M22 17C22 16.7348 21.8946 16.4804 21.7071 16.2929C21.5196 16.1054 21.2652 16 21 16C20.7348 16 20.4804 16.1054 20.2929 16.2929C20.1054 16.4804 20 16.7348 20 17V23C19.9998 24.1527 20.3978 25.27 21.1267 26.1629C21.8556 27.0558 22.8706 27.6695 24 27.9V43C24 43.2652 24.1054 43.5196 24.2929 43.7071C24.4804 43.8946 24.7348 44 25 44C25.2652 44 25.5196 43.8946 25.7071 43.7071C25.8946 43.5196 26 43.2652 26 43V27.9C27.1294 27.6695 28.1444 27.0558 28.8733 26.1629C29.6022 25.27 30.0002 24.1527 30 23V17C30 16.7348 29.8946 16.4804 29.7071 16.2929C29.5196 16.1054 29.2652 16 29 16C28.7348 16 28.4804 16.1054 28.2929 16.2929C28.1054 16.4804 28 16.7348 28 17V23C28.0003 23.6207 27.8081 24.2261 27.4499 24.733C27.0917 25.2398 26.5852 25.6231 26 25.83V17C26 16.7348 25.8946 16.4804 25.7071 16.2929C25.5196 16.1054 25.2652 16 25 16C24.7348 16 24.4804 16.1054 24.2929 16.2929C24.1054 16.4804 24 16.7348 24 17V25.83C23.4148 25.6231 22.9083 25.2398 22.5501 24.733C22.1919 24.2261 21.9997 23.6207 22 23V17ZM36 43V30H33C32.7348 30 32.4804 29.8946 32.2929 29.7071C32.1054 29.5196 32 29.2652 32 29V21C32 19.674 32.652 18.434 33.542 17.542C34.434 16.652 35.674 16 37 16C37.2652 16 37.5196 16.1054 37.7071 16.2929C37.8946 16.4804 38 16.7348 38 17V43C38 43.2652 37.8946 43.5196 37.7071 43.7071C37.5196 43.8946 37.2652 44 37 44C36.7348 44 36.4804 43.8946 36.2929 43.7071C36.1054 43.5196 36 43.2652 36 43Z" fill="#0DBA8A"/>
</svg>
