<svg width="60" height="60" viewBox="0 0 60 60" fill="none" xmlns="http://www.w3.org/2000/svg">
<rect width="60" height="60" rx="12" fill="#DCF6EF"/>
<g clip-path="url(#clip0_428_378)">
<path fill-rule="evenodd" clip-rule="evenodd" d="M27.952 18.376C28.1906 18.0897 28.4866 17.8567 28.8208 17.6918C29.155 17.527 29.5201 17.434 29.8925 17.4189C30.2648 17.4039 30.6362 17.467 30.9827 17.6043C31.3292 17.7416 31.643 17.95 31.904 18.216L32.048 18.376L37.2907 24.6667H41.2707C41.5505 24.6661 41.8272 24.7246 42.0829 24.8384C42.3385 24.9522 42.5672 25.1187 42.754 25.327C42.9408 25.5354 43.0815 25.7808 43.1668 26.0473C43.2522 26.3137 43.2803 26.5952 43.2493 26.8733L43.1267 27.8947L42.9933 28.8813L42.884 29.62L42.7573 30.4133L42.6133 31.2467L42.4507 32.1107L42.2693 32.992C42.1733 33.436 42.0707 33.8813 41.96 34.3227C41.6648 35.4938 41.2943 36.6447 40.8507 37.768L40.556 38.488L40.2707 39.1387L40.0013 39.7173L39.876 39.976L39.544 40.6293C39.1173 41.4427 38.312 41.9227 37.46 41.992L37.2467 42H22.74C22.2738 42.0036 21.8154 41.8805 21.4138 41.6438C21.0123 41.407 20.6826 41.0656 20.46 40.656L20.1507 40.056L19.9107 39.5627C19.8679 39.4718 19.8257 39.3807 19.784 39.2893L19.5173 38.6907C18.9086 37.2766 18.4145 35.8159 18.04 34.3227C17.9676 34.0327 17.8983 33.742 17.832 33.4507L17.6427 32.5867L17.4733 31.7413L17.324 30.924L17.1907 30.1413L17.0747 29.4027L16.976 28.7187L16.856 27.808L16.768 27.0667C16.7603 26.9987 16.7527 26.9307 16.7453 26.8627C16.7174 26.6007 16.7419 26.3357 16.8175 26.0833C16.893 25.8308 17.0181 25.596 17.1854 25.3924C17.3528 25.1889 17.5589 25.0207 17.792 24.8977C18.025 24.7747 18.2802 24.6993 18.5427 24.676L18.724 24.6667H22.7093L27.952 18.376ZM27.2813 30.9627C27.1911 30.6481 26.9884 30.3776 26.7117 30.2029C26.435 30.0281 26.1037 29.9612 25.7809 30.0149C25.458 30.0686 25.1662 30.2391 24.961 30.4941C24.7558 30.749 24.6515 31.0705 24.668 31.3973L24.6853 31.552L25.352 35.552L25.3853 35.704C25.4755 36.0186 25.6783 36.289 25.955 36.4638C26.2316 36.6386 26.5629 36.7055 26.8858 36.6518C27.2086 36.5981 27.5004 36.4275 27.7056 36.1726C27.9109 35.9177 28.0151 35.5962 27.9987 35.2693L27.9813 35.1147L27.3147 31.1147L27.2813 30.9627ZM34.2187 30.0187C33.8964 29.9649 33.5656 30.0314 33.2891 30.2054C33.0126 30.3794 32.8096 30.6489 32.7187 30.9627L32.6853 31.1147L32.0187 35.1147C31.963 35.4501 32.0376 35.7942 32.2273 36.0765C32.4169 36.3587 32.7072 36.5579 33.0388 36.6331C33.3704 36.7084 33.7183 36.6542 34.0112 36.4814C34.3041 36.3087 34.52 36.0306 34.6147 35.704L34.648 35.552L35.3147 31.552C35.3725 31.2034 35.2895 30.846 35.084 30.5585C34.8785 30.271 34.5673 30.0768 34.2187 30.0187ZM30 20.0827L26.18 24.6667H33.82L30 20.0827Z" fill="#0DBA8A"/>
</g>
<defs>
<clipPath id="clip0_428_378">
<rect width="32" height="32" fill="white" transform="translate(14 14)"/>
</clipPath>
</defs>
</svg>
