<svg width="80" height="80" viewBox="0 0 80 80" fill="none" xmlns="http://www.w3.org/2000/svg">
<circle cx="40" cy="40" r="40" fill="#DCF6EF"/>
<mask id="mask0_487_663" style="mask-type:alpha" maskUnits="userSpaceOnUse" x="0" y="0" width="80" height="80">
<circle cx="40" cy="40" r="40" fill="#D9D9D9"/>
</mask>
<g mask="url(#mask0_487_663)">
<path fill-rule="evenodd" clip-rule="evenodd" d="M56.1761 37.2782C56.1761 46.2525 48.9806 53.4484 40 53.4484C31.0225 53.4484 23.8239 46.2525 23.8239 37.2782C23.8239 28.304 31.0225 21.1111 40 21.1111C48.9806 21.1111 56.1761 28.304 56.1761 37.2782ZM40 82.2222C26.7461 82.2222 15.5556 80.068 15.5556 71.7568C15.5556 63.4426 26.8164 61.3648 40 61.3648C53.2569 61.3648 64.4445 63.519 64.4445 71.8302C64.4445 80.1444 53.1836 82.2222 40 82.2222Z" fill="#0DBA8A"/>
</g>
</svg>
