<svg width="60" height="60" viewBox="0 0 60 60" fill="none" xmlns="http://www.w3.org/2000/svg">
<rect width="60" height="60" rx="12" fill="#DCF6EF"/>
<path fill-rule="evenodd" clip-rule="evenodd" d="M24.6667 18C24.3131 18.0001 23.974 18.1406 23.724 18.3907L18.3907 23.724C18.1551 23.9588 18.0157 24.2731 18 24.6053M18 24.6773V38C18 39.0609 18.4214 40.0783 19.1716 40.8284C19.9217 41.5786 20.9391 42 22 42H38C39.0609 42 40.0783 41.5786 40.8284 40.8284C41.5786 40.0783 42 39.0609 42 38V24.6773L41.9987 24.6053C41.9833 24.2733 41.8444 23.959 41.6093 23.724L36.276 18.3907C36.026 18.1406 35.6869 18.0001 35.3333 18H24.6667M37.448 23.3333L34.7813 20.6667H25.2187L22.552 23.3333H37.448ZM23.3333 30C23.3333 29.6464 23.4738 29.3072 23.7239 29.0572C23.9739 28.8071 24.313 28.6667 24.6667 28.6667H30C30.3536 28.6667 30.6928 28.8071 30.9428 29.0572C31.1929 29.3072 31.3333 29.6464 31.3333 30C31.3333 30.3536 31.1929 30.6928 30.9428 30.9428C30.6928 31.1929 30.3536 31.3333 30 31.3333H24.6667C24.313 31.3333 23.9739 31.1929 23.7239 30.9428C23.4738 30.6928 23.3333 30.3536 23.3333 30Z" fill="#0DBA8A"/>
</svg>
